#!OML:ASF F:\VICON\USERDATA\INSTALL\rory3\rory3.ASF
:FULLY-SPECIFIED
:DEGREES
88
root 0.18306517758885543 17.78570778555273 42.32915847280655 -3.490990781135994 -2.173068939053958 -6.288403674762135
lfemur -20.846965882278216 2.592027242366152 -12.969973069163741
ltibia 54.428759484601855
lfoot -4.651448348032282 -3.2783290283325095
ltoes -8.597168447463206
rfemur -7.674117303535508 3.643515627768272 32.246260024781854
rtibia 36.4408124344786
rfoot -8.179862974518002 -7.458043312783527
rtoes 4.022983292650535
lowerback 10.604155193512673 0.38714170088527267 2.682682859354673
upperback 0.1851563299590181 1.71828929494372 2.417869879584095
thorax -5.87389453262099 0.35879586462761487 0.8888091710187209
lowerneck -16.552204262146248 -3.416300854103235 -1.9047324903207643
upperneck 20.66536138249555 -4.250169421547779 2.2134212044099915
head 9.288931452161025 -2.0802803731674038 0.45178600061328383
lclavicle 2.999245094379298e-16 5.589843890750156e-17
lhumerus -29.379476341593357 1.9565127488287264 82.90748503714481
lradius 23.4271902254238
lwrist 6.854197223904506
lhand -29.005488652870334 20.38102439644775
lfingers 7.125020000000001
lthumb -2.309519096850061 50.588999359119555
rclavicle 2.98085438301295e-16 5.457783818959479e-17
rhumerus -30.859838624390445 -21.113866521785837 -76.78449889833254
rradius 27.55739948651561
rwrist 4.497257036594246
rhand -18.10587375036159 23.173480895339434
rfingers 7.125020000000001
rthumb 7.9573052774557915 -7.042297211713024
89
root 0.19730440436914487 17.763574945851637 42.21000057827254 -3.0778366234533396 -2.7752112227724943 -6.598651065672189
lfemur -23.987140937511406 2.795688578308363 -12.431224695411782
ltibia 52.43877029122115
lfoot -4.59760937017546 -2.7488713445354285
ltoes -9.533236333858946
rfemur -6.041168292374671 3.6423790141139736 32.63553189762785
rtibia 36.513743835960426
rfoot -8.31527988653825 -7.3268881425003265
rtoes 3.5785146893088102
lowerback 10.636322733442114 0.6052788153763284 3.1340227109590355
upperback 0.14541462763907673 2.0476685146068876 2.3728338968621046
thorax -5.9076384667238875 0.467711840034884 0.5823091626166552
lowerneck -16.54552603039623 -3.4383372660171645 -1.9238841235810575
upperneck 20.627641284259674 -4.297230666172273 2.199253740668518
head 9.294171251586416 -2.081184201916885 0.45815064273498496
lclavicle 2.999245094379302e-16 5.589843890750188e-17
lhumerus -30.37708051941939 2.8988646182406863 82.82118831704514
lradius 23.037492442316488
lwrist 7.073817441645022
lhand -29.024517613779338 20.328632553161103
lfingers 7.125020000000001
lthumb -2.170857599227455 51.035979072203844
rclavicle 2.9808543830129494e-16 5.457783818959474e-17
rhumerus -29.258057049687594 -18.895485727170794 -78.11672014961003
rradius 27.68064834426743
rwrist 4.023358599449929
rhand -18.134148383775752 23.154806463212715
rfingers 7.125020000000001
rthumb 7.983626931944805 -6.983738584108428
90
root 0.21406960887856985 17.739014066187238 42.27459517426668 -2.6370517404560454 -3.333263530076799 -6.840480370158858
lfemur -26.48289209494953 2.2528318246322216 -12.07387864546109
ltibia 48.99538594050074
lfoot -4.921096621474007 -2.880603169918133
ltoes -9.359962595834075
rfemur -4.195376490019013 3.6274487980995227 32.96509801247319
rtibia 36.89970043470982
rfoot -8.245381963720824 -7.222250512820498
rtoes 3.348517389524238
lowerback 10.654637200796442 0.8416130424454601 3.649265411039785
upperback 0.09908961618542886 2.3095846845701953 2.3236352679239944
thorax -5.93369926655152 0.5737505771876221 0.28678573971649657
lowerneck -16.573542442796434 -3.4615401944811848 -1.9571432384067697
upperneck 20.59992786234305 -4.33829070275473 2.180670076397016
head 9.289779067313019 -2.0862082226714884 0.4592178953388399
lclavicle 2.999245094379299e-16 5.589843890750163e-17
lhumerus -31.33007057367057 4.002435043572108 82.62532273894728
lradius 22.76980736526173
lwrist 7.396265386574923
lhand -29.10975845003901 20.12887262730361
lfingers 7.125020000000001
lthumb -2.317902469850639 50.56974201480024
rclavicle 2.98085438301295e-16 5.45778381895948e-17
rhumerus -27.841439736704327 -16.9151070280356 -79.16952188285687
rradius 27.879005481439954
rwrist 3.590394047889057
rhand -18.126107882676898 23.166092759863396
rfingers 7.125020000000001
rthumb 8.069931085926147 -6.817200428280117
91
root 0.23966107669341113 17.715171890621352 42.908472271777214 -2.2237925031714068 -3.7630220008423603 -6.908950791316545
lfemur -27.377006762808676 0.8507309488876862 -11.391011854411968
ltibia 44.66545829408861
lfoot -4.371646043228032 -2.5618138327005386
ltoes -9.306764424765547
rfemur -2.292422262983708 3.5921886816820225 33.133338834938996
rtibia 37.827178998708284
rfoot -7.888877072966563 -7.160089387652952
rtoes 3.0113294846727108
lowerback 10.629195491620628 1.0580193988083644 4.104980097881567
upperback 0.05789986968491895 2.5494302398893582 2.2799964297275666
thorax -5.95903297690589 0.6546228702714503 -0.02387198346707864
lowerneck -16.586778698912678 -3.484551939467398 -2.0006997610826267
upperneck 20.58014139344094 -4.370681442045614 2.1548167380932757
head 9.289330726841992 -2.0901334824713294 0.46262709316349815
lclavicle 2.999245094379295e-16 5.589843890750136e-17
lhumerus -32.187388151071936 5.254193943380431 82.31687573557124
lradius 22.542240322119813
lwrist 7.5474941252426335
lhand -29.079538046934218 20.224112592365888
lfingers 7.125020000000001
lthumb -2.2020260286314848 50.96447088536285
rclavicle 2.980854383012949e-16 5.4577838189594715e-17
rhumerus -26.51322324279338 -15.255270659880637 -79.89827652510307
rradius 28.1519191318731
rwrist 3.13920377471634
rhand -18.145171855104156 23.12737320526332
rfingers 7.125020000000001
rthumb 8.04288238554757 -6.874332825256409
92
root 0.26489692069554305 17.689004929376576 43.38540789781988 -1.9572523806865134 -4.089486071908403 -6.88803386698602
lfemur -27.455195609018563 -1.455020125630114 -10.41682173300701
ltibia 39.96103404547418
lfoot -4.009006674099597 -2.636510640956923
ltoes -8.949770170862884
rfemur -1.331633737522182 3.464932320700914 32.884290269231485
rtibia 38.980983828742644
rfoot -7.739906456147326 -7.260084789834982
rtoes 2.900595131963174
lowerback 10.556681650764812 1.2468715696312194 4.466142614929433
upperback 0.023611980517926984 2.750964570916776 2.2359488639093317
thorax -5.978662369371083 0.721792290946401 -0.26844408294561384
lowerneck -16.56319292952658 -3.4879564517252994 -2.0318666894145645
upperneck 20.580163999473783 -4.381187036368861 2.1577298760542183
head 9.283789079672713 -2.0963287765700964 0.4603731769554387
lclavicle 2.999245094379294e-16 5.589843890750127e-17
lhumerus -32.956117025935974 6.596216435388953 81.87713291390611
lradius 22.33402256999494
lwrist 7.452141061742132
lhand -29.15417002280604 20.01268668959276
lfingers 7.125020000000001
lthumb -2.3611277692107437 50.47011401919493
rclavicle 2.980854383012949e-16 5.4577838189594697e-17
rhumerus -25.233155773910234 -13.980453620101846 -80.34625427731956
rradius 28.418652576114045
rwrist 2.7166346291751875
rhand -18.136168373216897 23.124450184610254
rfingers 7.125020000000001
rthumb 8.062328315795893 -6.883435663915845
93
root 0.29195501353023245 17.666587201728372 43.956293880412744 -1.89490007505596 -4.230500660479097 -6.727808522769736
lfemur -26.197877012174885 -4.238349790313602 -8.976924693193084
ltibia 35.10120751701429
lfoot -4.727221283420505 -3.0637318261549904
ltoes -8.928391074585303
rfemur -0.10245835647966217 3.431289107111016 32.68285891077707
rtibia 39.99566197469415
rfoot -7.868173179926706 -7.41341270264825
rtoes 2.714034158656172
lowerback 10.465464045921117 1.414294715486109 4.736490113646911
upperback -0.0032317808784881746 2.8740062491692324 2.1783125220121735
thorax -5.983263577666189 0.7889767450484891 -0.4119580679772197
lowerneck -16.54049953985154 -3.486645537984304 -2.067664392643948
upperneck 20.595306746680563 -4.385656766911785 2.1788015028693244
head 9.264833090610608 -2.1144720625034017 0.4481087895369019
lclavicle 2.9992450943792953e-16 5.58984389075014e-17
lhumerus -33.693319494246836 7.9321041054699215 81.27153181043994
lradius 22.25360170763057
lwrist 7.2959633581466665
lhand -29.097111596365693 20.166349069509778
lfingers 7.125020000000001
lthumb -2.2001765936234374 50.99106872311449
rclavicle 2.9808543830129484e-16 5.457783818959466e-17
rhumerus -24.068235000846144 -13.140004731688009 -80.58310611465077
rradius 28.539398137177248
rwrist 2.338443245048758
rhand -18.14633831714846 23.120818074217112
rfingers 7.125020000000001
rthumb 8.080032996048221 -6.870680607154421
94
root 0.315939189587738 17.65130027440174 44.29371657348099 -2.077191367060885 -4.206812420203249 -6.480073700284953
lfemur -24.75101410897593 -6.051316683690059 -8.440485703728262
ltibia 31.390907669971828
lfoot -5.491954412959878 -3.2161160684009626
ltoes -8.982973257508585
rfemur 0.19522684767447274 3.2219157873727458 32.07332266579704
rtibia 40.8268307586443
rfoot -8.236235547405807 -7.547657244785186
rtoes 1.9938276328720184
lowerback 10.361557622874612 1.5263067016857181 4.820288954451003
upperback -0.01797750907538058 2.9659186738083987 2.1123400998249813
thorax -5.981595798891949 0.8634258694301303 -0.4994285206823248
lowerneck -16.467148509001316 -3.45275495556968 -2.063862162586795
upperneck 20.566489328576104 -4.442487975508698 2.140440606926899
head 9.272047255655048 -2.1148603612197387 0.4605953820299278
lclavicle 2.999245094379297e-16 5.589843890750151e-17
lhumerus -34.49853711209567 9.129145133756278 80.47140517571128
lradius 22.38905892948486
lwrist 7.319455457289697
lhand -29.17561270880847 19.937070926363283
lfingers 7.125020000000001
lthumb -2.324794673138719 50.581783668798096
rclavicle 2.980854383012949e-16 5.45778381895947e-17
rhumerus -23.11617685982782 -12.736630833972193 -80.68896989457338
rradius 28.636630738530677
rwrist 2.1217854823334976
rhand -18.15901048087748 23.10567984783178
rfingers 7.125020000000001
rthumb 8.09998181795421 -6.840502421122268
95
root 0.34301510869379037 17.64966333431984 44.81343100522288 -2.4403709118366588 -4.014827261145569 -6.087111774341608
lfemur -23.874907259420958 -5.113412618744215 -9.767375042932061
ltibia 30.39857458773047
lfoot -5.499474158687195 -2.9873056331731505
ltoes -9.180200689862568
rfemur -0.011283528518713837 2.8913561069758447 31.2470228434569
rtibia 41.74401015630292
rfoot -8.449274560548872 -7.572782422989977
rtoes 1.8375962810217934
lowerback 10.28721283405707 1.6045465966119024 4.769159641433806
upperback -0.02245155876186128 3.0059450825893936 2.024157129908243
thorax -5.9912569611664015 0.8940452315544101 -0.5737483768813885
lowerneck -16.485839474846166 -3.44757509210203 -2.1091052020645367
upperneck 20.552739813697205 -4.493233626903468 2.1556908920166333
head 9.265649946673323 -2.125236086264778 0.45873691684611284
lclavicle 2.999245094379297e-16 5.58984389075015e-17
lhumerus -35.25558131651917 10.305739396983807 79.55614451563184
lradius 22.768690383972544
lwrist 7.24796852520537
lhand -29.029863130389646 20.34109142168254
lfingers 7.125020000000001
lthumb -2.173653361473292 51.06968370472279
rclavicle 2.9808543830129484e-16 5.4577838189594684e-17
rhumerus -22.44718962137405 -12.682590137658652 -80.69030221774973
rradius 28.71119012555742
rwrist 1.8935982494492904
rhand -18.11996373867046 23.164770559385325
rfingers 7.125020000000001
rthumb 8.044550406570151 -6.949995598809345
